<svg width="112" height="117" viewBox="0 0 112 117" fill="none" xmlns="http://www.w3.org/2000/svg">
<g clip-path="url(#clip0_22_169)">
<path d="M42 0H8.75C3.91751 0 0 4.0924 0 9.14062V43.875C0 48.9232 3.91751 53.0156 8.75 53.0156H42C46.8325 53.0156 50.75 48.9232 50.75 43.875V9.14062C50.75 4.0924 46.8325 0 42 0Z" fill="#488ECB"/>
<path d="M103.25 0H70C65.1675 0 61.25 4.0924 61.25 9.14062V43.875C61.25 48.9232 65.1675 53.0156 70 53.0156H103.25C108.082 53.0156 112 48.9232 112 43.875V9.14062C112 4.0924 108.082 0 103.25 0Z" fill="#488ECB"/>
<path d="M42 63.9844H8.75C3.91751 63.9844 0 68.0768 0 73.125V107.859C0 112.908 3.91751 117 8.75 117H42C46.8325 117 50.75 112.908 50.75 107.859V73.125C50.75 68.0768 46.8325 63.9844 42 63.9844Z" fill="#488ECB"/>
<path fill-rule="evenodd" clip-rule="evenodd" d="M103.25 73.125H70V107.859H103.25V73.125ZM70 63.9844C65.1676 63.9844 61.25 68.0768 61.25 73.125V107.859C61.25 112.908 65.1676 117 70 117H103.25C108.083 117 112 112.908 112 107.859V73.125C112 68.0768 108.083 63.9844 103.25 63.9844H70Z" fill="#488ECB"/>
</g>
<defs>
<clipPath id="clip0_22_169">
<rect width="112" height="117" fill="white"/>
</clipPath>
</defs>
</svg>
