<svg width="111" height="111" viewBox="0 0 111 111" fill="none" xmlns="http://www.w3.org/2000/svg">
<g clip-path="url(#clip0_86_592)">
<path d="M100.438 95.3971C98.0816 93.9244 87.7465 85.4002 87.7465 85.4002C87.7465 85.4002 86.8632 79.2169 85.6843 70.6792C84.5071 62.1416 81.5634 58.0205 81.5634 58.0205C97.7863 42.9919 87.7467 26.224 85.0968 18.274C82.8295 11.4722 84.8644 5.87996 89.5441 5.59964C93.3765 5.37071 95.9889 10.9133 95.1071 12.9755C94.2239 15.0362 93.665 17.0829 95.4317 17.9647C97.1984 18.8479 99.522 17.6843 100.699 11.5028C101.878 5.31976 94.6801 -3.16177 84.8028 1.19845C76.1847 5.00172 78.0608 16.4935 82.7731 27.6795C87.4835 38.8676 81.4847 54.9023 65.9907 53.0008C53.0501 51.4119 35.9626 55.9446 35.9626 55.9446C35.9626 55.9446 33.6064 49.4676 23.8898 50.6446C11.6102 52.1327 15.9416 58.2991 15.9416 58.2991L16.5296 64.4823C15.6481 65.3658 12.704 66.249 12.9979 67.1322C13.2919 68.0155 15.0584 71.549 16.5296 72.1385C18.0023 72.7262 21.2605 73.4933 25.3627 73.9035C28.3066 74.1972 33.3504 76.5397 33.3504 76.5397C33.3504 76.5397 28.0521 89.3472 27.1686 90.6712C25.9199 92.5439 21.4227 97.907 15.3916 102.004C13.3823 103.373 10.4605 103.036 9.50382 103.477C5.67649 105.243 8.29582 107.024 9.47325 107.024C10.6505 107.024 16.2768 107.6 18.3355 107.01C20.3976 106.421 33.0172 93.9244 33.0172 93.9244L38.9765 83.2836L43.5078 91.9956L41.7411 105.685C41.7411 105.685 44.832 110.544 47.0394 110.101C49.2485 109.66 46.5986 106.127 46.5986 104.362C46.5986 102.596 49.2485 89.7882 49.2485 89.7882L45.2965 78.9197C49.7183 78.6157 56.9388 78.1405 62.6078 77.8622L58.5038 84.2145C58.0102 84.98 57.7331 85.8685 57.7058 86.779L57.159 104.817C57.159 104.817 54.2151 107.173 53.0381 107.467C51.8592 107.76 53.6276 110.704 53.6276 110.704L57.1588 111L61.5754 108.646L63.9315 90.3913L73.3056 81.2487C75.1662 84.835 77.2797 89.8736 77.2797 89.8736C77.9581 91.1739 79.0429 92.2143 80.3723 92.8361L97.7861 100.989C97.7861 100.989 96.9044 105.7 95.1362 105.7C93.3713 105.7 93.0773 108.056 93.3713 108.938C93.665 109.823 95.4317 109.823 97.1986 109.823C98.965 109.823 98.965 109.527 99.259 108.645C99.553 107.76 101.909 103.935 103.086 100.989C104.265 98.0455 102.792 96.8683 100.438 95.3971Z" fill="#488ECB"/>
</g>
<defs>
<clipPath id="clip0_86_592">
<rect width="111" height="111" fill="white"/>
</clipPath>
</defs>
</svg>
