<svg width="112" height="112" viewBox="0 0 112 112" fill="none" xmlns="http://www.w3.org/2000/svg">
<path d="M23.3344 9.28199C23.3344 7.10368 21.5683 5.33749 19.3921 5.33749H17.9418C15.7657 5.33749 13.9995 7.10368 13.9995 9.28199V20.1928H23.3344V9.28199Z" fill="#488ECB"/>
<path d="M42.0004 9.28199C42.0004 7.10368 40.2342 5.33749 38.0579 5.33749H36.6098C34.4354 5.33749 32.6694 7.10368 32.6694 9.28199V20.1928H42.0007L42.0004 9.28199Z" fill="#488ECB"/>
<path d="M60.6662 9.28199C60.6662 7.10368 58.9 5.33749 56.7239 5.33749H55.2758C53.1014 5.33749 51.3354 7.10368 51.3354 9.28199V20.1928H60.6665V9.28199H60.6662Z" fill="#488ECB"/>
<path d="M79.3346 9.28199C79.3346 7.10368 77.5685 5.33749 75.3941 5.33749H73.942C71.7676 5.33749 70.0015 7.10368 70.0015 9.28199V20.1928H79.3346V9.28199Z" fill="#488ECB"/>
<path d="M13.9995 102.718C13.9995 104.897 15.7657 106.662 17.9418 106.662H19.3921C21.5685 106.662 23.3344 104.896 23.3344 102.718V91.8113H13.9995V102.718Z" fill="#488ECB"/>
<path d="M32.6697 102.718C32.6697 104.897 34.4358 106.662 36.61 106.662H38.0581C40.2345 106.662 42.0007 104.896 42.0007 102.718V91.8113H32.6694L32.6697 102.718Z" fill="#488ECB"/>
<path d="M51.3357 102.718C51.3357 104.897 53.1019 106.662 55.276 106.662H56.7241C58.9003 106.662 60.6664 104.896 60.6664 102.718V91.8113H51.3354V102.718H51.3357Z" fill="#488ECB"/>
<path d="M70.0015 102.718C70.0015 104.897 71.7676 106.662 73.942 106.662H75.3941C77.5685 106.662 79.3346 104.896 79.3346 102.718V91.8113H70.0015V102.718Z" fill="#488ECB"/>
<path d="M98.0005 9.28199C98.0005 7.10368 96.2382 5.33749 94.0559 5.33749H92.6078C90.4334 5.33749 88.6675 7.10368 88.6675 9.28199V20.1928H98.0005V9.28199Z" fill="#488ECB"/>
<path d="M88.6675 102.718C88.6675 104.897 90.4337 106.662 92.6078 106.662H94.0559C96.2382 106.662 98.0005 104.896 98.0005 102.718V91.8113H88.6675V102.718Z" fill="#488ECB"/>
<path d="M36.7885 48.9943H32.5871C32.4714 48.9943 32.4146 49.0512 32.4146 49.1671V54.4123C32.4146 54.528 32.4714 54.5851 32.5871 54.5851H36.7885C38.5842 54.5851 39.8006 53.4842 39.8006 51.8044C39.8006 50.0953 38.584 48.9943 36.7885 48.9943Z" fill="#488ECB"/>
<path d="M54.8047 50.8193L52.1675 58.4688H57.4973L54.8914 50.8193H54.8047Z" fill="#488ECB"/>
<path d="M0 26.0249V85.979H112V26.0249H0ZM43.3956 65.6254H40.1774C39.9459 65.6254 39.8322 65.539 39.7438 65.3349L35.978 57.6562H32.587C32.4712 57.6562 32.4144 57.715 32.4144 57.8307V65.3347C32.4144 65.5093 32.2967 65.6252 32.1239 65.6252H29.2825C29.1097 65.6252 28.994 65.5095 28.994 65.3347V46.2116C28.994 46.0368 29.1097 45.9211 29.2825 45.9211H36.9042C40.5269 45.9211 43.1915 48.3269 43.1915 51.8044C43.1915 54.383 41.7141 56.3826 39.4553 57.2224L43.5978 65.2483C43.7137 65.4509 43.598 65.6254 43.3956 65.6254ZM63.0626 65.6254H60.221C60.0208 65.6254 59.9032 65.539 59.8463 65.3349L58.5412 61.5101H51.1234L49.8205 65.3349C49.7617 65.5388 49.6477 65.6254 49.4438 65.6254H46.6336C46.4297 65.6254 46.3708 65.5097 46.4297 65.3349L53.1801 46.2118C53.2389 46.037 53.3566 45.9213 53.5568 45.9213H56.2238C56.4259 45.9213 56.5436 46.037 56.6005 46.2118L63.2647 65.3349C63.3216 65.5097 63.2647 65.6254 63.0626 65.6254ZM83.5124 65.3351C83.5124 65.5097 83.3965 65.6256 83.2219 65.6256H80.7004C80.5276 65.6256 80.4118 65.5099 80.4118 65.3351V53.2822H80.2961L76.1241 62.5546C76.0064 62.8156 75.8338 62.9313 75.5729 62.9313H73.8911C73.6321 62.9313 73.4576 62.8156 73.3416 62.5546L69.1698 53.2822H69.0541V65.3351C69.0541 65.5097 68.9382 65.6256 68.7636 65.6256H66.2419C66.0693 65.6256 65.9536 65.5099 65.9536 65.3351V46.212C65.9536 46.0372 66.0693 45.9215 66.2419 45.9215H68.8205C69.0834 45.9215 69.2289 46.0099 69.3151 46.212L74.7331 58.3531H74.8488L80.1806 46.212C80.2668 46.0099 80.4121 45.9215 80.6732 45.9215H83.2221C83.3967 45.9215 83.5126 46.0372 83.5126 46.212V65.3351H83.5124Z" fill="#488ECB"/>
</svg>
