<svg width="112" height="112" viewBox="0 0 112 112" fill="none" xmlns="http://www.w3.org/2000/svg">
<g clip-path="url(#clip0_86_587)">
<path fill-rule="evenodd" clip-rule="evenodd" d="M67.2 56C67.2 62.188 62.188 67.2 56 67.2C49.812 67.2 44.8 62.188 44.8 56C44.8 49.812 49.812 44.8 56 44.8C62.188 44.8 67.2 49.812 67.2 56ZM56 78.4C43.6464 78.4 33.6 68.3536 33.6 56C33.6 43.6464 43.6464 33.6 56 33.6C68.3536 33.6 78.4 43.6464 78.4 56C78.4 68.3536 68.3536 78.4 56 78.4ZM56 22.4C37.4416 22.4 22.4 37.4416 22.4 56C22.4 74.5584 37.4416 89.6 56 89.6C74.5584 89.6 89.6 74.5584 89.6 56C89.6 37.4416 74.5584 22.4 56 22.4ZM56 100.8C31.2984 100.8 11.2 80.7016 11.2 56C11.2 31.2984 31.2984 11.2 56 11.2C80.7016 11.2 100.8 31.2984 100.8 56C100.8 80.7016 80.7016 100.8 56 100.8ZM56 0C25.0712 0 0 25.0712 0 56C0 86.9288 25.0712 112 56 112C86.9288 112 112 86.9288 112 56C112 25.0712 86.9288 0 56 0Z" fill="#488ECB"/>
</g>
<defs>
<clipPath id="clip0_86_587">
<rect width="112" height="112" fill="white"/>
</clipPath>
</defs>
</svg>
