<svg width="112" height="109" viewBox="0 0 112 109" fill="none" xmlns="http://www.w3.org/2000/svg">
<g clip-path="url(#clip0_22_97)">
<path fill-rule="evenodd" clip-rule="evenodd" d="M16.4217 1.95765C17.2476 0.736901 18.6627 0 20.1813 0H91.3284C92.8238 0 94.2216 0.715423 95.0531 1.90699L110.489 24.0342C111.474 25.4458 112 27.1052 112 28.8029V104.709C112 107.078 109.994 109 107.52 109H4.48C2.00577 109 0 107.078 0 104.709V28.7699C0 27.1135 0.500361 25.4925 1.44072 24.1025L16.4217 1.95765ZM15.7013 18.8048V64.6015L8.96 81.481V28.7698L15.7013 18.8048ZM10.9905 100.417H100.936L88.2794 69.6857H23.2641L10.9905 100.417ZM24.6613 61.103H86.848V8.58268H24.6613V61.103ZM95.8084 18.4365L103.04 28.8029V82.1378L95.8084 64.5785V18.4365Z" fill="#488ECB"/>
<path d="M69.3399 45.6623C69.6274 47.3716 68.2493 48.9213 66.4419 48.9213C64.9676 48.9213 63.7221 47.8738 63.5313 46.4735L63.3816 45.3753C63.1051 43.3468 61.3008 41.8294 59.1652 41.8294H52.5332C51.0303 41.8294 49.6274 42.5513 48.7977 43.7517L46.0386 47.7437C45.5304 48.4791 44.671 48.9213 43.7504 48.9213C41.5398 48.9213 40.2364 46.5454 41.4904 44.8015L57.5588 22.4555C58.3949 21.2928 59.7974 20.5984 61.2712 20.5984C63.4704 20.5984 65.3816 22.1274 65.7314 24.2072L69.3399 45.6623ZM55.8534 33.6057C54.3782 35.7307 55.9686 38.5734 58.6327 38.5734C60.6409 38.5734 62.1943 36.8871 61.9445 34.9784C61.5597 32.0378 57.5667 31.1379 55.8534 33.6057Z" fill="#488ECB"/>
</g>
<defs>
<clipPath id="clip0_22_97">
<rect width="112" height="109" fill="white"/>
</clipPath>
</defs>
</svg>
